<svg width="795" height="826" viewBox="0 0 795 826" fill="none" xmlns="http://www.w3.org/2000/svg">
<path d="M715.706 8C522.689 289.736 405.724 402.853 345.486 438.171C333.251 445.345 334.309 447.217 348.472 446.381C504.983 437.143 686.113 442.203 427.113 523.043C69.2178 634.749 433.374 181.671 78.7522 640.149C-204.945 1006.93 432.71 605.756 787 359.32" stroke="#FFD147" stroke-width="15" stroke-linecap="round"/>
<path d="M279.696 703.648C281.403 703.221 283.024 703.349 284.56 704.032C286.864 705.141 287.888 707.104 287.632 709.92C287.547 710.347 287.461 710.731 287.376 711.072C286.437 714.315 284.304 716.491 280.976 717.6C280.805 717.6 280.635 717.643 280.464 717.728C277.989 718.411 275.899 717.899 274.192 716.192C272.229 714.144 272.016 711.669 273.552 708.768C274.747 706.037 276.795 704.331 279.696 703.648ZM268.304 731.68C269.499 731.424 271.035 731.381 272.912 731.552C277.861 732.491 280.976 735.179 282.256 739.616C282.683 741.408 282.683 743.285 282.256 745.248L276.496 760.864C272.656 770.933 270.693 776.181 270.608 776.608C269.584 779.936 269.541 782.069 270.48 783.008C270.736 783.179 271.205 783.264 271.888 783.264C272.827 783.264 273.424 783.221 273.68 783.136C277.349 781.856 280.165 778.059 282.128 771.744C282.299 771.403 282.427 771.019 282.512 770.592C282.939 769.312 283.365 768.629 283.792 768.544C284.048 768.459 284.816 768.416 286.096 768.416C287.717 768.416 288.613 768.501 288.784 768.672C289.211 769.013 289.296 769.739 289.04 770.848C287.419 776.48 284.859 781.045 281.36 784.544C278.971 786.763 276.539 788.256 274.064 789.024C273.211 789.195 272.059 789.28 270.608 789.28C269.072 789.28 267.963 789.195 267.28 789.024C264.549 788.341 262.501 787.104 261.136 785.312C260.112 784.117 259.429 782.752 259.088 781.216C258.661 779.339 258.661 777.419 259.088 775.456L264.976 759.712C268.901 749.216 270.992 743.456 271.248 742.432C271.589 740.981 271.589 739.701 271.248 738.592C270.821 737.568 269.883 737.227 268.432 737.568C265.872 738.08 263.568 740.043 261.52 743.456C260.24 745.589 259.216 748.192 258.448 751.264C258.192 751.776 258.021 752.075 257.936 752.16C257.765 752.331 256.869 752.416 255.248 752.416H252.816L252.432 752.032C252.005 751.691 252.048 750.795 252.56 749.344C254.693 742.176 258.149 737.013 262.928 733.856C263.355 733.6 263.824 733.344 264.336 733.088C265.872 732.235 267.195 731.765 268.304 731.68ZM317.037 699.936C324.034 699.424 327.448 699.168 327.277 699.168C328.045 699.168 328.557 699.467 328.813 700.064C328.898 700.405 325.826 713.12 319.597 738.208L309.997 776.864C309.912 777.205 309.869 777.931 309.869 779.04C309.869 781.259 310.381 782.624 311.405 783.136C313.624 784.075 315.544 782.752 317.165 779.168C317.848 777.888 318.701 775.328 319.725 771.488C320.237 769.696 320.664 768.715 321.005 768.544C321.176 768.459 321.986 768.416 323.437 768.416C325.058 768.416 325.997 768.501 326.253 768.672C326.424 768.843 326.509 769.184 326.509 769.696C326.509 770.805 325.869 773.109 324.589 776.608C323.224 779.851 322.072 782.197 321.133 783.648C319.17 786.464 316.909 788.256 314.349 789.024C313.752 789.195 312.813 789.28 311.533 789.28C309.485 789.28 307.778 789.024 306.413 788.512C302.146 786.976 299.544 784.117 298.605 779.936C298.264 777.973 298.264 776.309 298.605 774.944C298.605 775.029 301.25 764.235 306.541 742.56C312.002 720.715 314.562 709.451 314.221 708.768C313.624 708.171 311.789 707.829 308.717 707.744H306.029L305.517 707.232C305.176 706.891 305.218 705.781 305.645 703.904C306.157 701.941 306.584 700.875 306.925 700.704C307.01 700.704 310.381 700.448 317.037 699.936ZM361.946 703.648C363.653 703.221 365.274 703.349 366.81 704.032C369.114 705.141 370.138 707.104 369.882 709.92C369.797 710.347 369.711 710.731 369.626 711.072C368.687 714.315 366.554 716.491 363.226 717.6C363.055 717.6 362.885 717.643 362.714 717.728C360.239 718.411 358.149 717.899 356.442 716.192C354.479 714.144 354.266 711.669 355.802 708.768C356.997 706.037 359.045 704.331 361.946 703.648ZM350.554 731.68C351.749 731.424 353.285 731.381 355.162 731.552C360.111 732.491 363.226 735.179 364.506 739.616C364.933 741.408 364.933 743.285 364.506 745.248L358.746 760.864C354.906 770.933 352.943 776.181 352.858 776.608C351.834 779.936 351.791 782.069 352.73 783.008C352.986 783.179 353.455 783.264 354.138 783.264C355.077 783.264 355.674 783.221 355.93 783.136C359.599 781.856 362.415 778.059 364.378 771.744C364.549 771.403 364.677 771.019 364.762 770.592C365.189 769.312 365.615 768.629 366.042 768.544C366.298 768.459 367.066 768.416 368.346 768.416C369.967 768.416 370.863 768.501 371.034 768.672C371.461 769.013 371.546 769.739 371.29 770.848C369.669 776.48 367.109 781.045 363.61 784.544C361.221 786.763 358.789 788.256 356.314 789.024C355.461 789.195 354.309 789.28 352.858 789.28C351.322 789.28 350.213 789.195 349.53 789.024C346.799 788.341 344.751 787.104 343.386 785.312C342.362 784.117 341.679 782.752 341.338 781.216C340.911 779.339 340.911 777.419 341.338 775.456L347.226 759.712C351.151 749.216 353.242 743.456 353.498 742.432C353.839 740.981 353.839 739.701 353.498 738.592C353.071 737.568 352.133 737.227 350.682 737.568C348.122 738.08 345.818 740.043 343.77 743.456C342.49 745.589 341.466 748.192 340.698 751.264C340.442 751.776 340.271 752.075 340.186 752.16C340.015 752.331 339.119 752.416 337.498 752.416H335.066L334.682 752.032C334.255 751.691 334.298 750.795 334.81 749.344C336.943 742.176 340.399 737.013 345.178 733.856C345.605 733.6 346.074 733.344 346.586 733.088C348.122 732.235 349.445 731.765 350.554 731.68ZM413.623 731.552H418.871C425.1 732.491 428.983 735.093 430.519 739.36C431.372 741.92 431.159 744.523 429.879 747.168C429.282 748.277 428.727 749.088 428.215 749.6C425.911 751.733 423.436 752.587 420.791 752.16C419.511 751.989 418.402 751.52 417.463 750.752C416.61 749.899 416.098 748.875 415.927 747.68C415.5 745.12 416.354 742.688 418.487 740.384C419.084 739.787 419.724 739.317 420.407 738.976C420.663 738.805 420.834 738.677 420.919 738.592C420.919 738.336 419.767 737.995 417.463 737.568C411.831 736.8 406.754 738.72 402.231 743.328C399.244 746.571 396.855 751.605 395.063 758.432C394.978 759.029 394.85 759.627 394.679 760.224C392.972 767.051 392.29 771.829 392.631 774.56C393.228 779.083 395.66 781.899 399.927 783.008C401.719 783.52 404.364 783.52 407.863 783.008C413.239 782.24 417.804 780.405 421.559 777.504C423.18 776.48 424.546 775.243 425.655 773.792C426.594 772.683 427.362 772.341 427.959 772.768C428.215 772.939 428.684 773.365 429.367 774.048C430.562 775.328 431.116 776.139 431.031 776.48C430.69 777.419 429.196 778.997 426.551 781.216C426.124 781.557 425.74 781.856 425.399 782.112C419.34 786.72 412.044 789.152 403.511 789.408C397.879 789.493 393.1 788.213 389.175 785.568C387.212 784.373 385.463 782.667 383.927 780.448C382.306 778.059 381.196 775.413 380.599 772.512C378.978 764.576 380.898 756.555 386.359 748.448C386.956 747.509 387.596 746.613 388.279 745.76C389.73 743.883 391.778 741.835 394.423 739.616C400.482 734.752 406.882 732.064 413.623 731.552ZM468.998 731.552H474.118C480.262 732.491 484.187 735.307 485.894 740C486.406 741.707 486.491 743.456 486.15 745.248C484.699 751.819 479.963 756.128 471.942 758.176C468.358 759.2 462.427 759.84 454.15 760.096H450.054L449.798 760.864C449.457 762.315 449.03 764.533 448.518 767.52C448.177 770.251 448.177 772.683 448.518 774.816C449.03 777.291 450.097 779.296 451.718 780.832C453.681 782.624 456.326 783.477 459.654 783.392C466.481 782.965 472.241 781.003 476.934 777.504C478.555 776.48 479.921 775.243 481.03 773.792C481.969 772.683 482.737 772.341 483.334 772.768C483.59 772.939 484.059 773.365 484.742 774.048C485.937 775.328 486.491 776.139 486.406 776.48C486.321 776.907 485.382 778.016 483.59 779.808C478.214 784.928 471.302 788 462.854 789.024C459.953 789.536 457.393 789.621 455.174 789.28C447.153 788.427 441.563 784.373 438.406 777.12C437.809 775.84 437.339 774.475 436.998 773.024C436.401 770.891 436.102 768.203 436.102 764.96C436.187 759.925 437.297 755.317 439.43 751.136C440.966 747.979 443.057 745.077 445.702 742.432C446.982 741.237 448.561 739.915 450.438 738.464C455.643 734.624 461.275 732.363 467.334 731.68C467.761 731.595 468.315 731.552 468.998 731.552ZM472.454 737.568C469.297 736.971 465.969 737.568 462.47 739.36C457.435 741.664 453.937 746.101 451.974 752.672C451.803 753.355 451.675 753.739 451.59 753.824C451.59 753.995 452.998 754.08 455.814 754.08C461.361 753.995 465.542 753.611 468.358 752.928C474.161 751.733 477.574 749.259 478.598 745.504C478.939 744.139 478.897 742.944 478.47 741.92C477.702 739.701 475.697 738.251 472.454 737.568ZM506.479 731.68C507.759 731.339 509.508 731.339 511.727 731.68C516.591 732.875 519.748 735.52 521.199 739.616L521.455 740.384L522.863 739.104C524.484 737.483 525.978 736.245 527.343 735.392C531.61 732.661 536.303 731.339 541.423 731.424C546.287 731.68 549.999 733.045 552.559 735.52C555.887 738.763 557.039 743.499 556.015 749.728C555.162 754.677 552.815 762.187 548.975 772.256C547.524 776.267 546.799 779.083 546.799 780.704C546.799 782.069 547.098 782.923 547.695 783.264C548.378 783.605 549.444 783.52 550.895 783.008C554.223 781.728 556.911 778.187 558.959 772.384C559.13 771.787 559.3 771.189 559.471 770.592C559.898 769.312 560.324 768.629 560.751 768.544C561.007 768.459 561.775 768.416 563.055 768.416C564.676 768.416 565.615 768.501 565.871 768.672C566.042 768.843 566.127 769.184 566.127 769.696C566.127 771.147 565.274 773.579 563.567 776.992C562.031 780.149 560.154 782.752 557.935 784.8C554.607 787.957 550.98 789.493 547.055 789.408C542.191 789.152 538.778 787.147 536.815 783.392C536.047 781.856 535.663 780.107 535.663 778.144C535.748 776.437 536.26 774.432 537.199 772.128C540.442 763.253 542.532 756.811 543.471 752.8C544.836 747.68 545.092 743.755 544.239 741.024C543.556 738.635 541.892 737.44 539.247 737.44C532.079 737.44 526.02 741.579 521.071 749.856L520.303 751.264L516.079 767.904C513.434 778.827 511.898 784.672 511.471 785.44C510.276 788 508.271 789.323 505.455 789.408C504.09 789.408 502.895 789.024 501.871 788.256C501.444 788.085 501.06 787.616 500.719 786.848C500.292 785.995 500.25 784.715 500.591 783.008C501.018 781.045 502.511 774.901 505.071 764.576C508.399 751.349 510.106 744.48 510.191 743.968C510.703 740.043 510.02 737.867 508.143 737.44C505.754 737.184 503.748 739.147 502.127 743.328C501.53 744.864 500.932 746.869 500.335 749.344L499.695 751.648C498.756 752.16 497.732 752.416 496.623 752.416H494.191L493.807 752.032C493.466 751.691 493.466 750.795 493.807 749.344C496.879 738.677 501.103 732.789 506.479 731.68ZM605.373 731.552H610.493C616.637 732.491 620.562 735.307 622.269 740C622.781 741.707 622.866 743.456 622.525 745.248C621.074 751.819 616.338 756.128 608.317 758.176C604.733 759.2 598.802 759.84 590.525 760.096H586.429L586.173 760.864C585.832 762.315 585.405 764.533 584.893 767.52C584.552 770.251 584.552 772.683 584.893 774.816C585.405 777.291 586.472 779.296 588.093 780.832C590.056 782.624 592.701 783.477 596.029 783.392C602.856 782.965 608.616 781.003 613.309 777.504C614.93 776.48 616.296 775.243 617.405 773.792C618.344 772.683 619.112 772.341 619.709 772.768C619.965 772.939 620.434 773.365 621.117 774.048C622.312 775.328 622.866 776.139 622.781 776.48C622.696 776.907 621.757 778.016 619.965 779.808C614.589 784.928 607.677 788 599.229 789.024C596.328 789.536 593.768 789.621 591.549 789.28C583.528 788.427 577.938 784.373 574.781 777.12C574.184 775.84 573.714 774.475 573.373 773.024C572.776 770.891 572.477 768.203 572.477 764.96C572.562 759.925 573.672 755.317 575.805 751.136C577.341 747.979 579.432 745.077 582.077 742.432C583.357 741.237 584.936 739.915 586.813 738.464C592.018 734.624 597.65 732.363 603.709 731.68C604.136 731.595 604.69 731.552 605.373 731.552ZM608.829 737.568C605.672 736.971 602.344 737.568 598.845 739.36C593.81 741.664 590.312 746.101 588.349 752.672C588.178 753.355 588.05 753.739 587.965 753.824C587.965 753.995 589.373 754.08 592.189 754.08C597.736 753.995 601.917 753.611 604.733 752.928C610.536 751.733 613.949 749.259 614.973 745.504C615.314 744.139 615.272 742.944 614.845 741.92C614.077 739.701 612.072 738.251 608.829 737.568Z" fill="#FFD147"/>
</svg>
